<svg xmlns="http://www.w3.org/2000/svg" width="98" height="20" viewBox="0 0 98 20">
    <g fill="none" fill-rule="nonzero">
        <path fill="#6A6A6A" d="M39.2 12.911v6.733h-2.156v-6.733l-6.4-9.733h2.623l4.933 7.844 4.889-7.844h2.467zM55.733 19.644h-1.822v-1.866c-1.044 1.51-2.355 2.2-4.111 2.2-2.489 0-3.978-1.422-3.978-4.045V7.711h1.956V15.4c0 1.711.489 2.867 2.489 2.867 2.6 0 3.489-1.845 3.489-4.311V7.689h1.955v11.955h.022zM65.089 9.467c-.2-.023-.311-.023-.511-.023-3.245 0-3.822 2.467-3.822 5.156v5.044H58.8V7.69h1.867v2.578c.822-2.023 2.289-2.845 4.422-2.845v2.045zM72.711 9.311h-2.378v6.956c0 1.089-.066 1.755 1.311 1.755.4 0 .645-.022 1.067-.066v1.688c-.622.067-.889.09-1.511.09-2.978 0-2.844-1.49-2.844-4.09V9.311h-2.023V7.69h2.023V4.156h1.955v3.533h2.378V9.31h.022zM85.733 19.6a3.997 3.997 0 0 1-1.333.222c-1.111 0-1.711-.622-1.733-1.755-1.178 1.31-2.467 1.889-4.334 1.889-2.355 0-3.822-1.29-3.822-3.378 0-2.134 1.4-3.378 4.245-3.734 2.844-.355 3.822-.266 3.822-1.888 0-1.267-.956-1.956-2.711-1.956-1.823 0-2.778.667-2.956 2.422H75c.067-2.555 1.911-4.044 5-4.044 1.6 0 2.956.422 3.756 1.155.822.8.8 2.045.8 3.111 0 1.778-.09 3.534-.09 5.312 0 .888.2 1.177.8 1.177.178 0 .267-.022.49-.066V19.6h-.023zm-5.8-5.444c-1.444.177-3.377.355-3.377 2.266 0 1.222.91 2 2.377 2 1.845 0 3.623-1.266 3.623-2.8v-2.178c-.734.556-1.756.6-2.623.712zM89.778 9.378c.889-1.311 2.2-2 3.91-2 2.845 0 4.023 1.578 4.023 4.066V19.6h-1.955v-7.667c0-1.644-.49-2.822-2.623-2.822-2.51 0-3.355 1.756-3.355 4.467v6.066h-1.956V3.156h1.956v6.222z"/>
        <path fill="#737373" d="M23.533 7.111c-.044-.044-3.866-3.555-7.044-5.955C15.51.4 14.267 0 12.91 0 11.6 0 10.333.4 9.356 1.133 6.2 3.556 2.378 7.067 2.333 7.111 1.244 8.111 0 9.267 0 11.556v5.755c0 1.133.933 2.333 2.444 2.333h8v-7.2h4.978v7.178h8.067c1.467 0 2.378-1.222 2.378-2.333v-5.733c0-2.29-1.245-3.445-2.334-4.445zm-11.51 4l.533-2.578h.755l.533 2.578h-1.822zM24.51 17.29c0 .333-.244 1-1.044 1h-6.711v-6.511a.669.669 0 0 0-.667-.667H15.2L14.4 7.2h-.844l-.29-3.933h-.688l-.29 3.933h-.844l-.8 3.911h-.888a.669.669 0 0 0-.667.667v6.51H2.444a1.053 1.053 0 0 1-1.088-1v-5.732c0-1.712.888-2.512 1.91-3.467C3.312 8.044 7.09 4.578 10.2 2.2c.711-.556 1.689-.867 2.733-.867 1.023 0 2 .311 2.734.867 3.11 2.356 6.91 5.844 6.933 5.889 1.022.933 1.911 1.755 1.911 3.467v5.733z"/>
        <path fill="#737373" d="M11.089 13.356h.844v.844h-.844v-.844zm1.422 0h.845v.844h-.845v-.844zm-1.422 1.8h.844V16h-.844v-.844zm1.422 0h.845V16h-.845v-.844zm-1.422 1.822h.844v.844h-.844v-.844zm1.422 0h.845v.844h-.845v-.844zm-1.422 1.8h.844v.844h-.844v-.844zm2.822-5.422h.845v.844h-.845v-.844zm0 1.8h.845V16h-.845v-.844zm0 1.822h.845v.844h-.845v-.844zm0 1.8h.845v.844h-.845v-.844zm-1.4 0h.845v.844h-.845v-.844z"/>
    </g>
</svg>
