<svg xmlns="http://www.w3.org/2000/svg" width="154" height="36" viewBox="0 0 154 36">
    <g fill="#FFF" fill-rule="nonzero">
        <path d="M62.8 22.367v10.1h-3.233v-10.1l-9.6-14.6H53.9l7.4 11.766 7.333-11.766h3.7zM87.6 32.467h-2.733v-2.8c-1.567 2.266-3.534 3.3-6.167 3.3-3.733 0-5.967-2.134-5.967-6.067V14.567h2.934V26.1c0 2.567.733 4.3 3.733 4.3 3.9 0 5.233-2.767 5.233-6.467v-9.4h2.934v17.934h.033zM101.633 17.2c-.3-.033-.466-.033-.766-.033-4.867 0-5.734 3.7-5.734 7.733v7.567H92.2V14.533H95V18.4c1.233-3.033 3.433-4.267 6.633-4.267V17.2zM113.067 16.967H109.5V27.4c0 1.633-.1 2.633 1.967 2.633.6 0 .966-.033 1.6-.1v2.534c-.934.1-1.334.133-2.267.133-4.467 0-4.267-2.233-4.267-6.133v-9.5H103.5v-2.434h3.033v-5.3h2.934v5.3h3.566v2.434h.034zM132.6 32.4c-.633.233-1.367.333-2 .333-1.667 0-2.567-.933-2.6-2.633-1.767 1.967-3.7 2.833-6.5 2.833-3.533 0-5.733-1.933-5.733-5.066 0-3.2 2.1-5.067 6.366-5.6 4.267-.534 5.734-.4 5.734-2.834 0-1.9-1.434-2.933-4.067-2.933-2.733 0-4.167 1-4.433 3.633H116.5c.1-3.833 2.867-6.066 7.5-6.066 2.4 0 4.433.633 5.633 1.733 1.234 1.2 1.2 3.067 1.2 4.667 0 2.666-.133 5.3-.133 7.966 0 1.334.3 1.767 1.2 1.767.267 0 .4-.033.733-.1v2.3h-.033zm-8.7-8.167c-2.167.267-5.067.534-5.067 3.4 0 1.834 1.367 3 3.567 3 2.767 0 5.433-1.9 5.433-4.2v-3.266c-1.1.833-2.633.9-3.933 1.066zM138.667 17.067c1.333-1.967 3.3-3 5.866-3 4.267 0 6.034 2.366 6.034 6.1V32.4h-2.934V20.9c0-2.467-.733-4.233-3.933-4.233-3.767 0-5.033 2.633-5.033 6.7v9.1h-2.934V7.733h2.934v9.334zM39.3 13.667c-.067-.067-5.8-5.334-10.567-8.934C27.267 3.6 25.4 3 23.367 3c-1.967 0-3.867.6-5.334 1.7C13.3 8.333 7.567 13.6 7.5 13.667 5.867 15.167 4 16.9 4 20.333v8.634c0 1.7 1.4 3.5 3.667 3.5h12v-10.8h7.466v10.766h12.1c2.2 0 3.567-1.833 3.567-3.5v-8.6c0-3.433-1.867-5.166-3.5-6.666zm-17.267 6l.8-3.867h1.134l.8 3.867h-2.734zm18.734 9.266c0 .5-.367 1.5-1.567 1.5H29.133v-9.766c0-.567-.466-1-1-1H26.8L25.6 13.8h-1.267L23.9 7.9h-1.033l-.434 5.9h-1.266l-1.2 5.867h-1.334c-.566 0-1 .466-1 1v9.766H7.667a1.58 1.58 0 0 1-1.634-1.5v-8.6c0-2.566 1.334-3.766 2.867-5.2.067-.066 5.733-5.266 10.4-8.833 1.067-.833 2.533-1.3 4.1-1.3 1.533 0 3 .467 4.1 1.3 4.667 3.533 10.367 8.767 10.4 8.833 1.533 1.4 2.867 2.634 2.867 5.2v8.6z"/>
        <path d="M20.633 23.033H21.9V24.3h-1.267v-1.267zm2.134 0h1.266V24.3h-1.266v-1.267zm-2.134 2.7H21.9V27h-1.267v-1.267zm2.134 0h1.266V27h-1.266v-1.267zm-2.134 2.734H21.9v1.266h-1.267v-1.266zm2.134 0h1.266v1.266h-1.266v-1.266zm-2.134 2.7H21.9v1.266h-1.267v-1.266zm4.234-8.134h1.266V24.3h-1.266v-1.267zm0 2.7h1.266V27h-1.266v-1.267zm0 2.734h1.266v1.266h-1.266v-1.266zm0 2.7h1.266v1.266h-1.266v-1.266zm-2.1 0h1.266v1.266h-1.266v-1.266z"/>
    </g>
</svg>
