<svg xmlns="http://www.w3.org/2000/svg" width="29" height="29" viewBox="0 0 29 29">
    <g fill="none" fill-rule="nonzero">
        <path fill="#FFF" d="M10.45 1.766C7.05 2.929 4.154 5.474 2.54 8.694a13.824 13.824 0 0 0-1.216 3.514 14.012 14.012 0 0 0 1.208 9.03A14.089 14.089 0 0 0 6.322 25.9a13.912 13.912 0 0 0 5.075 2.56c2.327.623 4.804.608 7.146.075 2.117-.488 4.121-1.502 5.72-2.973 1.69-1.554 2.898-3.596 3.536-5.795.698-2.395.788-4.955.353-7.417H15.015v5.45h7.612a6.576 6.576 0 0 1-2.793 4.316c-.923.623-1.981 1.021-3.077 1.216-1.096.188-2.237.21-3.333-.007a8.266 8.266 0 0 1-3.108-1.344 8.633 8.633 0 0 1-3.198-4.286 8.473 8.473 0 0 1 0-5.435 8.721 8.721 0 0 1 2.027-3.295 8.281 8.281 0 0 1 4.173-2.32 8.331 8.331 0 0 1 4.1.165 7.517 7.517 0 0 1 3.01 1.772l2.567-2.568c.45-.457.923-.9 1.358-1.373a13.616 13.616 0 0 0-4.496-2.785c-3.003-1.111-6.38-1.134-9.406-.09z"/>
        <path fill="#EA4335" d="M10.45 1.766a14.14 14.14 0 0 1 9.407.082 13.569 13.569 0 0 1 4.496 2.785c-.435.473-.908.916-1.358 1.374l-2.568 2.567a7.605 7.605 0 0 0-3.01-1.771 8.243 8.243 0 0 0-4.099-.165 8.344 8.344 0 0 0-4.173 2.32 8.664 8.664 0 0 0-2.027 3.295c-1.524-1.187-3.048-2.365-4.58-3.551 1.615-3.228 4.512-5.773 7.913-6.936z"/>
        <path fill="#FBBC05" d="M1.33 12.2a13.926 13.926 0 0 1 1.216-3.513c1.524 1.186 3.048 2.364 4.58 3.55-.601 1.75-.601 3.694 0 5.435-1.524 1.186-3.048 2.373-4.572 3.551-1.411-2.755-1.84-5.99-1.224-9.023z"/>
        <path fill="#4285F4" d="M15.015 12.343h13.137c.435 2.454.338 5.014-.353 7.416-.638 2.2-1.847 4.242-3.536 5.795l-4.436-3.445a6.576 6.576 0 0 0 2.792-4.317h-7.611c.007-1.816.007-3.633.007-5.45z"/>
        <path fill="#34A853" d="M2.539 21.23c1.524-1.178 3.048-2.364 4.571-3.55a8.677 8.677 0 0 0 3.198 4.286 8.318 8.318 0 0 0 3.108 1.344c1.096.225 2.23.195 3.333.007 1.096-.195 2.154-.593 3.078-1.216l4.436 3.446c-1.599 1.479-3.603 2.485-5.72 2.973-2.342.533-4.82.548-7.146-.075a13.797 13.797 0 0 1-5.075-2.56A14.057 14.057 0 0 1 2.54 21.23z"/>
    </g>
</svg>
