<svg xmlns="http://www.w3.org/2000/svg" width="24" height="24" viewBox="0 0 24 24">
    <path fill="#6A6A6A" fill-rule="evenodd" d="M8.3 23.744a5.599 5.599 0 0 1-3.97-1.642c-.899-.898-1.37-2.11-1.327-3.411.068-1.993 1.077-3.565 2.702-4.207a4.052 4.052 0 0 1 4.353.904 1.267 1.267 0 1 1-1.793 1.794 1.512 1.512 0 0 0-1.629-.338c-.665.262-1.066.966-1.098 1.932a2.04 2.04 0 0 0 .585 1.532 3.084 3.084 0 0 0 4.399-.042l7.622-7.622c.207-.206.32-.48.32-.772 0-.292-.113-.566-.32-.773l-7.622-7.62c-.015-.015-.03-.028-.043-.043a3.085 3.085 0 0 0-4.356 0 2.041 2.041 0 0 0-.585 1.533c.032.965.433 1.669 1.098 1.932.563.222 1.202.089 1.629-.338a1.269 1.269 0 0 1 1.793 1.793 4.05 4.05 0 0 1-4.353.904C4.08 8.619 3.07 7.047 3.003 5.054 2.96 3.752 3.43 2.54 4.33 1.642a5.621 5.621 0 0 1 7.943 0l7.665 7.664A3.607 3.607 0 0 1 21 11.872c0 .97-.377 1.88-1.062 2.566l-7.665 7.664A5.598 5.598 0 0 1 8.3 23.744"/>
</svg>
