<svg xmlns="http://www.w3.org/2000/svg" width="24" height="24" viewBox="0 0 24 24">
    <path fill="#6A6A6A" fill-rule="evenodd" d="M15.7 23.744a5.599 5.599 0 0 0 3.97-1.642c.899-.898 1.37-2.11 1.327-3.411-.068-1.993-1.077-3.565-2.702-4.207a4.052 4.052 0 0 0-4.353.904 1.267 1.267 0 1 0 1.793 1.794 1.512 1.512 0 0 1 1.629-.338c.665.262 1.066.966 1.098 1.932a2.04 2.04 0 0 1-.585 1.532 3.084 3.084 0 0 1-4.399-.042l-7.622-7.622a1.083 1.083 0 0 1-.32-.772c0-.292.113-.566.32-.773l7.622-7.62c.015-.015.03-.028.043-.043 1.2-1.2 3.155-1.2 4.356 0 .397.397.605.94.585 1.533-.032.965-.433 1.669-1.098 1.932a1.514 1.514 0 0 1-1.629-.338 1.269 1.269 0 0 0-1.793 1.793 4.05 4.05 0 0 0 4.353.904c1.625-.641 2.634-2.213 2.702-4.206.043-1.302-.428-2.514-1.327-3.412a5.621 5.621 0 0 0-7.943 0L4.062 9.306A3.607 3.607 0 0 0 3 11.872c0 .97.377 1.88 1.062 2.566l7.665 7.664.05.047a5.598 5.598 0 0 0 3.923 1.595"/>
</svg>
