<svg xmlns="http://www.w3.org/2000/svg" width="41" height="41" viewBox="0 0 41 41">
    <g fill="#6950AB" fill-rule="evenodd">
        <path d="M17.894 36.264c-8.482 0-15.382-6.931-15.382-15.45 0-8.52 6.9-15.45 15.382-15.45 8.481 0 15.38 6.93 15.38 15.45 0 8.519-6.899 15.45-15.38 15.45m0-33.423C8.027 2.841 0 10.904 0 20.814c0 9.91 8.027 17.972 17.894 17.972 9.865 0 17.893-8.062 17.893-17.972 0-9.91-8.028-17.973-17.893-17.973"/>
        <path d="M9.447 29.298l10.518-6.403L26.34 12.33l-10.52 6.403z"/>
    </g>
</svg>
