<svg xmlns="http://www.w3.org/2000/svg" width="26" height="26" viewBox="0 0 26 26">
    <g fill="#000" fill-rule="evenodd">
        <path d="M20.814 20.374c0 .767-.61 1.391-1.361 1.391H6.548c-.751 0-1.362-.624-1.362-1.39V7.845c0-.767.61-1.392 1.362-1.392h1.801v.914c0 .617.49 1.118 1.093 1.118.604 0 1.093-.501 1.093-1.118v-.914h4.93v.914c0 .617.49 1.118 1.093 1.118.604 0 1.094-.501 1.094-1.118v-.914h1.8c.751 0 1.362.625 1.362 1.392v12.528zM19.453 4.22h-1.801V3.117c0-.616-.49-1.117-1.094-1.117-.603 0-1.093.5-1.093 1.117V4.22h-4.93V3.117c0-.616-.489-1.117-1.093-1.117S8.35 2.5 8.35 3.117V4.22H6.548C4.592 4.22 3 5.847 3 7.846v12.528C3 22.374 4.592 24 6.548 24h12.905C21.409 24 23 22.374 23 20.374V7.846c0-1.999-1.59-3.626-3.547-3.626z"/>
        <path d="M16.849 11H9.15C8.515 11 8 11.448 8 12s.515 1 1.151 1h7.698c.636 0 1.151-.448 1.151-1s-.515-1-1.151-1M16.849 16H9.15C8.515 16 8 16.448 8 17s.515 1 1.151 1h7.698c.636 0 1.151-.448 1.151-1s-.515-1-1.151-1"/>
    </g>
</svg>
