<svg xmlns="http://www.w3.org/2000/svg" width="30" height="30" viewBox="0 0 30 30">
    <path fill="#6A6A6A" fill-rule="evenodd" d="M23.945 2H6.188A4.193 4.193 0 0 0 2 6.198v17.797a4.193 4.193 0 0 0 4.188 4.199h8.1v-9.892l-3.202.003s.004-2.866.004-4.198c0-.048.009-.095.015-.164h3.183c0-.101-.025-1.873.093-2.66.237-1.58 1.002-2.876 2.321-3.814a4.345 4.345 0 0 1 2.58-.816h3.414v4.355h-3.273c-.608 0-.997.33-1.035.947-.04.645-.01 1.295-.01 1.97h4.323c.005.101.016 4.38.016 4.38-1.28-.006-2.808-.003-4.089-.003h-.268v9.892h5.585a4.193 4.193 0 0 0 4.188-4.199V6.198A4.193 4.193 0 0 0 23.945 2"/>
</svg>
