<svg xmlns="http://www.w3.org/2000/svg" width="40" height="41" viewBox="0 0 40 41">
    <path fill="#6950AB" fill-rule="evenodd" d="M31.918 5.652L6.158 31.455a1.191 1.191 0 0 0-.352.849c0 .32.125.622.352.848.228.23.532.356.857.357h.006c.32 0 .618-.122.841-.346L19.78 21.226l2.207 2.21 8.153-8.168c2.425-2.43 4.18-6.277 1.778-9.616M14.04 16.793L3.943 6.68 5.67 4.95l10.09 10.109c.905-1.658.665-3.776-.725-5.168L7.887 2.73 9.613 1l7.148 7.16c2.173 2.178 2.552 5.485 1.14 8.072L31.985 2.126l.864.865c4.49 4.498 2.744 10.276-.98 14.007l-5.37 5.377 8.441 8.456c1.42 1.422 1.414 3.74-.011 5.167a3.61 3.61 0 0 1-2.574 1.068c-.972 0-1.886-.38-2.574-1.068L19.133 25.332l-9.544 9.56a3.6 3.6 0 0 1-2.568 1.063h-.016a3.63 3.63 0 0 1-2.574-1.073 3.626 3.626 0 0 1-1.066-2.578c0-.974.379-1.89 1.066-2.579l10.75-10.768a6.736 6.736 0 0 1-3.24.821 6.728 6.728 0 0 1-4.793-1.989L0 10.63 1.726 8.9l7.148 7.16a4.305 4.305 0 0 0 3.068 1.273c.746 0 1.463-.187 2.098-.54zm10.731 7.312l-1.705 1.708 8.44 8.456c.454.453 1.242.452 1.695 0 .473-.475.478-1.24.012-1.708l-8.442-8.456z"/>
</svg>
