<svg xmlns="http://www.w3.org/2000/svg" width="26" height="26" viewBox="0 0 26 26">
    <path fill="#6A6A6A" fill-rule="evenodd" d="M22.694 5.488a5.133 5.133 0 0 0-3.861-1.482c-2.225.087-3.974 1.214-4.679 3.014-.649 1.658-.255 3.544.976 4.774.08.087.82.854 1.969 1.042a1.097 1.097 0 1 0 .355-2.166c-.414-.067-.723-.377-.744-.398a2.288 2.288 0 0 1-.513-2.453c.383-.977 1.375-1.568 2.722-1.621.85-.023 1.656.273 2.223.84 1.637 1.639 1.627 4.196-.034 5.96l-7.937 8.637a.521.521 0 0 1-.388.17.523.523 0 0 1-.387-.17l-7.941-8.647c-1.651-1.754-1.662-4.311-.026-5.95.568-.567 1.374-.863 2.225-.84 1.346.053 2.339.644 2.72 1.621.332.848.131 1.81-.53 2.471-.002.003-.31.313-.726.38a1.098 1.098 0 0 0 .355 2.166 3.66 3.66 0 0 0 1.94-1.012 4.481 4.481 0 0 0 1.005-4.804c-.704-1.8-2.454-2.927-4.679-3.014a5.125 5.125 0 0 0-3.862 1.482c-2.493 2.496-2.502 6.367-.03 8.994l7.933 8.638c.513.559 1.244.88 2.003.88.76 0 1.49-.321 2.004-.88l7.928-8.629c2.483-2.636 2.474-6.507-.02-9.003"/>
</svg>
