<svg xmlns="http://www.w3.org/2000/svg" width="30" height="30" viewBox="0 0 30 30">
    <g fill="#6A6A6A" fill-rule="evenodd">
        <path d="M5.748 1.532a4.287 4.287 0 0 0-4.281 4.291v18.192a4.287 4.287 0 0 0 4.28 4.291h18.15a4.287 4.287 0 0 0 4.283-4.291V5.823a4.287 4.287 0 0 0-4.282-4.291H5.748zm18.998 18.526c-.008.044-.02.088-.024.132a5.158 5.158 0 0 1-3.974 4.54c-.263.06-.532.09-.798.135H9.696l-.435-.06A5.168 5.168 0 0 1 4.9 19.701c0-3.19-.001-6.381.002-9.571a5.157 5.157 0 0 1 5.145-5.157h9.509a5.152 5.152 0 0 1 5.054 3.994c.057.259.091.523.136.785v10.305z"/>
        <path d="M14.83 11.49a3.435 3.435 0 0 0-3.429 3.433c0 1.897 1.534 3.443 3.42 3.447a3.44 3.44 0 1 0 .01-6.88"/>
        <path d="M20.315 10.559a1.131 1.131 0 0 1-1.14-1.135 1.132 1.132 0 0 1 1.133-1.142 1.13 1.13 0 0 1 1.14 1.135 1.13 1.13 0 0 1-1.133 1.142m-5.485 9.318c-2.729-.002-4.942-2.226-4.938-4.962a4.954 4.954 0 0 1 4.95-4.938c2.719.004 4.93 2.227 4.928 4.957a4.945 4.945 0 0 1-4.94 4.943m8.195-10.235c-.287-1.76-1.7-2.963-3.475-2.963h-4.713c-1.594 0-3.187-.003-4.782 0a3.445 3.445 0 0 0-3.453 3.458c-.004 3.191-.003 6.382 0 9.572a3.453 3.453 0 0 0 3.461 3.468c3.179.003 6.357.003 9.536 0a3.46 3.46 0 0 0 3.463-3.468c.003-3.19.001-6.381 0-9.572 0-.165-.01-.333-.037-.495"/>
    </g>
</svg>
