<svg xmlns="http://www.w3.org/2000/svg" width="41" height="41" viewBox="0 0 41 41">
    <g fill="#6950AB" fill-rule="evenodd">
        <path d="M17.894 4.512c-8.482 0-15.382 6.9-15.382 15.382 0 8.48 6.9 15.382 15.382 15.382 8.481 0 15.382-6.901 15.382-15.382 0-8.482-6.9-15.382-15.382-15.382m0 33.275C8.027 37.787 0 29.76 0 19.894 0 10.027 8.027 2 17.894 2c9.866 0 17.893 8.027 17.893 17.894 0 9.866-8.027 17.893-17.893 17.893"/>
        <path d="M17.894 10.71a6.496 6.496 0 0 0-6.489 6.488 6.45 6.45 0 0 0 1.147 3.679l.287.416 5.055 6.913 5.334-7.317a6.462 6.462 0 0 0 1.154-3.69 6.496 6.496 0 0 0-6.488-6.49zm0 21.751l-7.41-10.16a8.944 8.944 0 0 1-1.59-5.103c0-4.963 4.037-9 9-9s9 4.037 9 9c0 1.832-.55 3.597-1.591 5.105l-.19.28-7.22 9.878z"/>
        <path d="M17.894 15.758c-.794 0-1.44.645-1.44 1.44 0 .794.646 1.44 1.44 1.44.793 0 1.44-.646 1.44-1.44 0-.795-.647-1.44-1.44-1.44m0 5.39a3.955 3.955 0 0 1-3.952-3.95 3.956 3.956 0 0 1 3.952-3.952 3.956 3.956 0 0 1 3.951 3.952c0 2.18-1.772 3.95-3.951 3.95"/>
    </g>
</svg>
