<svg xmlns="http://www.w3.org/2000/svg" width="44" height="44" viewBox="0 0 44 44">
    <path fill="#6950AB" fill-rule="evenodd" d="M11.095 11.095c-3.732 3.732-3.733 9.802-.002 13.533 3.731 3.731 9.802 3.73 13.534-.001 3.732-3.732 3.732-9.803.001-13.534-3.73-3.73-9.801-3.73-13.533.002M26.25 26.25c-4.628 4.627-12.155 4.628-16.782.001-4.626-4.626-4.625-12.154.002-16.781 4.627-4.627 12.155-4.628 16.781-.002 4.627 4.627 4.626 12.154-.001 16.782zm10.74 10.748a3.427 3.427 0 0 1-4.841 0l-6.766-6.766 1.624-1.624 6.766 6.766c.439.439 1.154.44 1.594 0 .445-.445.449-1.165.01-1.604l-6.766-6.766 1.624-1.624 6.766 6.766a3.435 3.435 0 0 1-.01 4.852z"/>
</svg>
