<svg xmlns="http://www.w3.org/2000/svg" width="26" height="26" viewBox="0 0 26 26">
    <path fill="#6A6A6A" fill-rule="evenodd" stroke="#6A6A6A" stroke-width=".2" d="M14.846 22.667c-1.235-1.32-1.598-2.969-.972-4.41a3.635 3.635 0 0 1 3.334-2.189.98.98 0 1 1 0 1.961c-.667 0-1.27.396-1.536 1.009-.309.713-.089 1.547.606 2.29.428.458.996.711 1.595.711a3.17 3.17 0 0 0 3.164-3.165l.002-11.642c0-.7-.57-1.271-1.27-1.271H8.125a3.172 3.172 0 0 0-3.165 3.166c0 .6.253 1.166.712 1.596.742.694 1.576.914 2.29.605A1.673 1.673 0 0 0 8.97 9.792a.98.98 0 0 1 1.96 0 3.633 3.633 0 0 1-2.187 3.334c-1.441.626-3.09.264-4.41-.971A4.115 4.115 0 0 1 3 9.126c0-2.825 2.3-5.125 5.126-5.125L19.768 4A3.236 3.236 0 0 1 23 7.232v11.64c0 .022 0 .043-.002.063A5.133 5.133 0 0 1 17.873 24c-1.148 0-2.224-.474-3.027-1.333zm-11.547 1.06a.948.948 0 0 1-.02-1.364L16.76 8.838a1.003 1.003 0 0 1 1.397-.019c.39.372.4.982.019 1.364L4.695 23.708a.994.994 0 0 1-.707.292.998.998 0 0 1-.689-.273z"/>
</svg>
