<svg xmlns="http://www.w3.org/2000/svg" width="30" height="30" viewBox="0 0 30 30">
    <path fill="#6A6A6A" fill-rule="evenodd" d="M23.426 10.696c-.176.16-.361.312-.55.458a.294.294 0 0 0-.128.273 9.792 9.792 0 0 1-.373 3.053c-.24.857-.582 1.674-1.024 2.45a10.451 10.451 0 0 1-1.678 2.213 9.585 9.585 0 0 1-3.222 2.143 10.28 10.28 0 0 1-3.532.739c-.857.03-1.708-.025-2.546-.206a9.605 9.605 0 0 1-2.434-.851c-.319-.166-.633-.34-.949-.51l.016-.038c1.935.18 3.682-.303 5.261-1.497-1.652-.147-2.756-.969-3.361-2.505.282.012.537.039.789.03.255-.009.51-.053.768-.098-1.762-.55-2.711-1.727-2.813-3.582.503.223 1.011.4 1.572.405-1.597-1.33-1.945-2.927-1.083-4.836 1.974 2.324 4.44 3.593 7.459 3.802-.024-.231-.055-.439-.064-.648-.053-1.124.332-2.078 1.153-2.839.902-.836 1.982-1.113 3.18-.888.691.13 1.296.457 1.794.964.073.075.139.097.247.072a7.132 7.132 0 0 0 1.926-.726c.053-.03.109-.055.164-.082.007-.003.018 0 .048 0-.273.817-.779 1.443-1.48 1.925.68-.05 1.315-.256 1.97-.521a6.9 6.9 0 0 1-1.11 1.3m1.1-8.76H7a4.139 4.139 0 0 0-4.133 4.143v17.564A4.139 4.139 0 0 0 7 27.786h17.525a4.139 4.139 0 0 0 4.134-4.143V6.08a4.139 4.139 0 0 0-4.134-4.144"/>
</svg>
